<svg width="78" height="40" viewBox="0 0 78 40" fill="none" xmlns="http://www.w3.org/2000/svg">
<path d="M20.917 3L36.4335 11.3986V28.1957L20.917 36.5943L5.40042 28.1957V11.3986L20.917 3Z" fill="#F6F6F6"/>
<path d="M32.187 12.9067V21.4849H22.7333V31.4255L21.5508 32.1113V20.2915H30.9993V13.5953L21.5508 8.11446V6.73608L32.187 12.9067Z" fill="#0A0A0A"/>
<path d="M29.2075 14.6358V18.4921H21.5508V17.2987H28.0198V15.3244L21.5508 11.572V10.1936L29.2075 14.6358Z" fill="#0A0A0A"/>
<path d="M10.9057 13.5955V25.2526L17.5806 29.1248L17.9765 29.3543L19.1725 30.048V21.485H16.073V20.2916H20.3602V32.115L19.2714 31.4833L17.9765 30.7323L17.5806 30.5023L9.71802 25.9416V12.9069L17.5806 8.34534L17.9765 8.11581L20.3602 6.73267V8.11104L17.9765 9.49379L17.5806 9.72332L10.9057 13.5955Z" fill="#0A0A0A"/>
<path d="M20.3604 10.1902V11.5686L17.9767 12.9513L17.5808 13.1808L13.8854 15.3246V23.5248L17.5808 25.6689V27.0465L12.6978 24.2138V14.636" fill="#0A0A0A"/>
<path d="M68.4639 11.1777L65.4789 15.7547V18.7397H64.2252V15.7149L61.2402 11.1777H62.6929L64.8819 14.5806L67.051 11.1777H68.4639Z" fill="#F6F6F6"/>
<path d="M56.7041 17.6253H60.7637V18.7397H55.4504V11.1777H60.6642V12.2921H56.7041V14.3219H59.7687V15.3965H56.7041V17.6253Z" fill="#F6F6F6"/>
<path d="M52.5244 18.7397L50.7533 15.7945H48.9623V18.7397H47.7285V11.1777H50.8528C52.5045 11.1777 53.5393 12.0732 53.5393 13.4861C53.5393 14.5209 52.9821 15.2771 52.0468 15.6154L53.9572 18.7397H52.5244ZM48.9623 12.2722V14.7597H50.7334C51.7483 14.7597 52.2458 14.3219 52.2458 13.506C52.2458 12.6901 51.7483 12.2722 50.7334 12.2722H48.9623Z" fill="#F6F6F6"/>
<path d="M42.7135 14.8989H45.8378V18.7396H44.9025L44.803 17.6053C44.2458 18.4013 43.41 18.8391 42.3553 18.8391C40.226 18.8391 38.833 17.3068 38.833 14.9785C38.833 12.6502 40.3255 11.0781 42.5543 11.0781C44.0667 11.0781 45.2209 11.7945 45.7383 13.1079L44.5841 13.5457C44.2458 12.6502 43.5294 12.1726 42.5344 12.1726C41.0817 12.1726 40.1265 13.2671 40.1265 14.9586C40.1265 16.6899 41.022 17.7446 42.4349 17.7446C43.4697 17.7446 44.4448 17.1476 44.7035 15.874H42.7135V14.8989Z" fill="#F6F6F6"/>
<path d="M73.6666 28.0796L72.99 26.3284H69.3682L68.6916 28.0796H67.3782L70.4229 20.5176H71.9552L74.9999 28.0796H73.6666ZM69.806 25.214H72.5522L71.1791 21.6718L69.806 25.214Z" fill="#F6F6F6"/>
<path d="M66.7603 20.5176V21.5126L62.3226 26.9254H66.7603V28.0796H60.6709V27.0846L65.1285 21.6718H60.8898V20.5176H66.7603Z" fill="#F6F6F6"/>
<path d="M58.7405 28.0793L58.0639 26.3281H54.4421L53.7655 28.0793H52.4521L55.4968 20.5173H57.0291L60.0738 28.0793H58.7405ZM54.8799 25.2137H57.6261L56.253 21.6715L54.8799 25.2137Z" fill="#F6F6F6"/>
<path d="M48.0157 26.9254H52.0156V28.0796H46.762V20.5176H48.0157V26.9254Z" fill="#F6F6F6"/>
<path d="M42.5616 20.5176C44.2132 20.5176 45.248 21.4131 45.248 22.8459C45.248 24.2986 44.2132 25.1941 42.5616 25.1941H40.6512V28.0796H39.3975V20.5176H42.5616ZM42.4024 24.1195C43.4372 24.1195 43.9745 23.6817 43.9745 22.8658C43.9745 22.03 43.4372 21.6121 42.4024 21.6121H40.6512V24.1195H42.4024Z" fill="#F6F6F6"/>
</svg>
