<svg width="73" height="34" viewBox="0 0 73 34" fill="none" xmlns="http://www.w3.org/2000/svg">
<path d="M18.0385 0L33.6604 8.45557V25.3667L18.0385 33.8223L2.41671 25.3667V8.45557L18.0385 0Z" fill="#042C4A"/>
<path d="M29.0008 10.0621V18.4838H19.7447V28.2432L18.5869 28.9165V17.3122H27.8379V10.7381L18.5869 5.35715V4.00391L29.0008 10.0621Z" fill="#F6F6F6"/>
<path d="M26.0835 11.7582V15.5442H18.5869V14.3725H24.9207V12.4342L18.5869 8.75022V7.39697L26.0835 11.7582Z" fill="#F6F6F6"/>
<path d="M8.16287 10.7377V22.1823L14.6982 25.9839L15.0858 26.2092L16.2568 26.8903V18.4834H13.2221V17.3118H17.4197V28.9196L16.3537 28.2994L15.0858 27.5621L14.6982 27.3364L7 22.8587V10.0617L14.6982 5.58328L15.0858 5.35793L17.4197 4V5.35325L15.0858 6.71079L14.6982 6.93613L8.16287 10.7377Z" fill="#F6F6F6"/>
<path d="M17.4204 7.39355V8.7468L15.0865 10.1043L14.6989 10.3297L11.0808 12.4343V20.4851L14.6989 22.5901V23.9426L9.91797 21.1615V11.7583" fill="#F6F6F6"/>
<path d="M65.9093 8.23267L62.904 12.8407V15.846H61.6418V12.8006L58.6366 8.23267H60.0992L62.303 11.6586L64.4868 8.23267H65.9093Z" fill="#042C4A"/>
<path d="M54.0698 14.724H58.157V15.846H52.8076V8.23267H58.0568V9.35462H54.0698V11.3982H57.1552V12.4801H54.0698V14.724Z" fill="#042C4A"/>
<path d="M49.8618 15.846L48.0786 12.8808H46.2755V15.846H45.0333V8.23267H48.1788C49.8417 8.23267 50.8835 9.13424 50.8835 10.5567C50.8835 11.5985 50.3226 12.3599 49.3809 12.7005L51.3043 15.846H49.8618ZM46.2755 9.33459V11.839H48.0586C49.0804 11.839 49.5813 11.3982 49.5813 10.5768C49.5813 9.75532 49.0804 9.33459 48.0586 9.33459H46.2755Z" fill="#042C4A"/>
<path d="M39.9841 11.9793H43.1296V15.846H42.1879L42.0878 14.704C41.5268 15.5054 40.6853 15.9462 39.6235 15.9462C37.4797 15.9462 36.0773 14.4035 36.0773 12.0594C36.0773 9.71533 37.5799 8.13257 39.8238 8.13257C41.3465 8.13257 42.5085 8.85383 43.0294 10.1761L41.8674 10.6169C41.5268 9.71533 40.8055 9.23449 39.8038 9.23449C38.3412 9.23449 37.3795 10.3364 37.3795 12.0394C37.3795 13.7824 38.2811 14.8443 39.7036 14.8443C40.7454 14.8443 41.7271 14.2432 41.9876 12.961H39.9841V11.9793Z" fill="#042C4A"/>
<path d="M71.1465 25.2493L70.4653 23.4862H66.8189L66.1377 25.2493H64.8154L67.8808 17.636H69.4235L72.4888 25.2493H71.1465ZM67.2597 22.3642H70.0245L68.6421 18.798L67.2597 22.3642Z" fill="#042C4A"/>
<path d="M64.1943 17.636V18.6377L59.7265 24.0872H64.1943V25.2493H58.0636V24.2475L62.5514 18.798H58.284V17.636H64.1943Z" fill="#042C4A"/>
<path d="M56.119 25.2493L55.4378 23.4862H51.7915L51.1103 25.2493H49.788L52.8533 17.636H54.396L57.4614 25.2493H56.119ZM52.2322 22.3642H54.9971L53.6146 18.798L52.2322 22.3642Z" fill="#042C4A"/>
<path d="M45.3209 24.0872H49.348V25.2493H44.0587V17.636H45.3209V24.0872Z" fill="#042C4A"/>
<path d="M39.8311 17.636C41.494 17.636 42.5358 18.5376 42.5358 19.9801C42.5358 21.4426 41.494 22.3442 39.8311 22.3442H37.9077V25.2493H36.6455V17.636H39.8311ZM39.6708 21.2623C40.7126 21.2623 41.2536 20.8215 41.2536 20.0001C41.2536 19.1586 40.7126 18.7379 39.6708 18.7379H37.9077V21.2623H39.6708Z" fill="#042C4A"/>
</svg>
