<svg width="36" height="36" viewBox="0 0 36 36" fill="none" xmlns="http://www.w3.org/2000/svg">
<g clip-path="url(#clip0_261_3765)">
<rect width="36" height="36" rx="18" fill="white"/>
<path d="M18 36C8.05886 36 0 27.941 0 18C0 8.05887 8.05886 0 18 0C27.9411 0 36 8.05887 36 18C36 27.941 27.9411 36 18 36ZM12.4023 20.1074L12.425 20.093C13.4685 23.5381 13.9903 25.2607 13.9903 25.2607C14.1924 25.8196 14.4702 25.9193 14.8074 25.8737C15.1443 25.828 15.3232 25.6457 15.5432 25.4335C15.5432 25.4335 16.2565 24.745 17.6832 23.3681L22.2748 26.7656C23.1115 27.2279 23.7156 26.9894 23.9233 25.9879L26.9073 11.9095C27.2367 10.5992 26.6589 10.0736 25.6428 10.4896L8.12337 17.2568C6.92816 17.7372 6.93394 18.4059 7.90577 18.704L12.4023 20.1074Z" fill="#1B3F5A"/>
</g>
<defs>
<clipPath id="clip0_261_3765">
<rect width="36" height="36" rx="18" fill="white"/>
</clipPath>
</defs>
</svg>
